# xmcd
#
# Track frame offsets:
#	150
#	12917
#	25087
#	41027
#	53487
#	64380
#	76317
#	93230
#	105720
#	116740
#
# Disc length: 1701 seconds
#
# Revision: 0
# Processed by: cddbd v1.4PL0 Copyright (c) Steve Scherf et al.
# Submitted via: EasyCDDAExtractor 4.5.0.2
#
DISCID=7806a30a
DTITLE=Bill Anderson - The Legend, The Hits
DYEAR=2000
DGENRE=Country
TTITLE0=Still
TTITLE1=The Tip Of My Fingers
TTITLE2=Mama Sang A Song
TTITLE3=I Love You Drops
TTITLE4=Quits
TTITLE5=Three A.M.
TTITLE6=The Corner Of My Life
TTITLE7=Po' Folks
TTITLE8=I Get The Fever
TTITLE9=Wild Week-end
EXTD=
EXTT0=
EXTT1=
EXTT2=
EXTT3=
EXTT4=
EXTT5=
EXTT6=
EXTT7=
EXTT8=
EXTT9=
PLAYORDER=
